<svg width="64" height="48" viewBox="0 0 64 48" fill="none" xmlns="http://www.w3.org/2000/svg">
<path d="M13.3333 0H18.6667V5.33333H13.3333V18.6667C13.3333 20.0812 12.7714 21.4377 11.7712 22.4379C10.771 23.4381 9.41449 24 8 24C9.41449 24 10.771 24.5619 11.7712 25.5621C12.7714 26.5623 13.3333 27.9188 13.3333 29.3333V42.6667H18.6667V48H13.3333C10.48 47.28 8 45.6 8 42.6667V32C8 30.5855 7.4381 29.229 6.4379 28.2288C5.43771 27.2286 4.08115 26.6667 2.66667 26.6667H0V21.3333H2.66667C4.08115 21.3333 5.43771 20.7714 6.4379 19.7712C7.4381 18.771 8 17.4145 8 16V5.33333C8 3.91885 8.5619 2.56229 9.5621 1.5621C10.5623 0.561903 11.9188 0 13.3333 0ZM50.6667 0C52.0812 0 53.4377 0.561903 54.4379 1.5621C55.4381 2.56229 56 3.91885 56 5.33333V16C56 17.4145 56.5619 18.771 57.5621 19.7712C58.5623 20.7714 59.9188 21.3333 61.3333 21.3333H64V26.6667H61.3333C59.9188 26.6667 58.5623 27.2286 57.5621 28.2288C56.5619 29.229 56 30.5855 56 32V42.6667C56 44.0812 55.4381 45.4377 54.4379 46.4379C53.4377 47.4381 52.0812 48 50.6667 48H45.3333V42.6667H50.6667V29.3333C50.6667 27.9188 51.2286 26.5623 52.2288 25.5621C53.229 24.5619 54.5855 24 56 24C54.5855 24 53.229 23.4381 52.2288 22.4379C51.2286 21.4377 50.6667 20.0812 50.6667 18.6667V5.33333H45.3333V0H50.6667ZM32 32C32.7072 32 33.3855 32.281 33.8856 32.7811C34.3857 33.2811 34.6667 33.9594 34.6667 34.6667C34.6667 35.3739 34.3857 36.0522 33.8856 36.5523C33.3855 37.0524 32.7072 37.3333 32 37.3333C31.2928 37.3333 30.6145 37.0524 30.1144 36.5523C29.6143 36.0522 29.3333 35.3739 29.3333 34.6667C29.3333 33.9594 29.6143 33.2811 30.1144 32.7811C30.6145 32.281 31.2928 32 32 32ZM21.3333 32C22.0406 32 22.7189 32.281 23.219 32.7811C23.719 33.2811 24 33.9594 24 34.6667C24 35.3739 23.719 36.0522 23.219 36.5523C22.7189 37.0524 22.0406 37.3333 21.3333 37.3333C20.6261 37.3333 19.9478 37.0524 19.4477 36.5523C18.9476 36.0522 18.6667 35.3739 18.6667 34.6667C18.6667 33.9594 18.9476 33.2811 19.4477 32.7811C19.9478 32.281 20.6261 32 21.3333 32ZM42.6667 32C43.3739 32 44.0522 32.281 44.5523 32.7811C45.0524 33.2811 45.3333 33.9594 45.3333 34.6667C45.3333 35.3739 45.0524 36.0522 44.5523 36.5523C44.0522 37.0524 43.3739 37.3333 42.6667 37.3333C41.9594 37.3333 41.2811 37.0524 40.7811 36.5523C40.281 36.0522 40 35.3739 40 34.6667C40 33.9594 40.281 33.2811 40.7811 32.7811C41.2811 32.281 41.9594 32 42.6667 32Z" fill="url(#paint0_linear_4_102)"/>
<defs>
<linearGradient id="paint0_linear_4_102" x1="32" y1="0" x2="32" y2="48" gradientUnits="userSpaceOnUse">
<stop stop-color="#466D77"/>
<stop offset="1" stop-color="#425367"/>
</linearGradient>
</defs>
</svg>
