<svg width="16" height="18" viewBox="0 0 16 18" fill="none" xmlns="http://www.w3.org/2000/svg">
<path d="M7.82471 17C8.92928 17 9.82471 16.1046 9.82471 15C9.82471 13.8954 8.92928 13 7.82471 13C6.72014 13 5.82471 13.8954 5.82471 15C5.82471 16.1046 6.72014 17 7.82471 17Z" stroke="#A0A0A0" stroke-linecap="round" stroke-linejoin="round"/>
<path d="M2.82471 5C3.92928 5 4.82471 4.10457 4.82471 3C4.82471 1.89543 3.92928 1 2.82471 1C1.72014 1 0.824707 1.89543 0.824707 3C0.824707 4.10457 1.72014 5 2.82471 5Z" stroke="#A0A0A0" stroke-linecap="round" stroke-linejoin="round"/>
<path d="M12.8247 5C13.9293 5 14.8247 4.10457 14.8247 3C14.8247 1.89543 13.9293 1 12.8247 1C11.7201 1 10.8247 1.89543 10.8247 3C10.8247 4.10457 11.7201 5 12.8247 5Z" stroke="#A0A0A0" stroke-linecap="round" stroke-linejoin="round"/>
<path d="M7.82471 9V13M2.82471 5V7C2.82471 7.53043 3.03542 8.03914 3.41049 8.41421C3.78557 8.78929 4.29427 9 4.82471 9H10.8247C11.3551 9 11.8638 8.78929 12.2389 8.41421C12.614 8.03914 12.8247 7.53043 12.8247 7V5H2.82471Z" stroke="#A0A0A0" stroke-linecap="round" stroke-linejoin="round"/>
</svg>
