<svg width="56" height="49" viewBox="0 0 56 49" fill="none" xmlns="http://www.w3.org/2000/svg">
<path d="M25.393 39.5251C25.663 39.7942 25.8772 40.1139 26.0234 40.4659C26.1695 40.8179 26.2448 41.1953 26.2448 41.5765C26.2448 41.9576 26.1695 42.335 26.0234 42.687C25.8772 43.0391 25.663 43.3588 25.393 43.6278L24.1573 44.8634C22.8457 46.18 21.286 47.2234 19.5686 47.9334C17.8512 48.6434 16.01 49.0059 14.1516 48.9999C11.3529 49.0008 8.61685 48.1716 6.28954 46.6172C3.96224 45.0627 2.14827 42.8529 1.07714 40.2673C0.00600992 37.6817 -0.274156 34.8365 0.272086 32.0917C0.818329 29.3468 2.16644 26.8256 4.14585 24.8471L12.5322 16.4607C14.316 14.6772 16.5441 13.4029 18.9858 12.7696C21.4275 12.1364 23.9941 12.1673 26.4198 12.8592C28.8456 13.551 31.0423 14.8786 32.7826 16.7046C34.523 18.5306 35.7436 20.7885 36.3182 23.2447C36.4134 23.6181 36.4331 24.0068 36.3761 24.3879C36.3191 24.7691 36.1866 25.135 35.9864 25.4643C35.7862 25.7936 35.5223 26.0796 35.2101 26.3056C34.8979 26.5316 34.5438 26.693 34.1685 26.7804C33.7931 26.8678 33.4041 26.8794 33.0242 26.8145C32.6443 26.7496 32.2812 26.6095 31.9562 26.4025C31.6311 26.1955 31.3507 25.9256 31.1312 25.6088C30.9118 25.292 30.7578 24.9346 30.6782 24.5575C30.3373 23.1077 29.6152 21.7752 28.5868 20.6978C27.5584 19.6204 26.2609 18.8373 24.8284 18.4294C23.3959 18.0214 21.8805 18.0035 20.4388 18.3774C18.997 18.7513 17.6814 19.5035 16.6277 20.5562L8.24131 28.9426C7.0723 30.1106 6.27594 31.5991 5.95293 33.2198C5.62992 34.8405 5.79478 36.5205 6.42665 38.0475C7.05852 39.5745 8.12902 40.8798 9.50277 41.7983C10.8765 42.7169 12.4918 43.2074 14.1444 43.2079C15.2424 43.2111 16.3302 42.9965 17.3447 42.5764C18.3592 42.1564 19.2803 41.5392 20.0547 40.7607L21.2879 39.5251C21.557 39.2548 21.8768 39.0402 22.2291 38.8939C22.5813 38.7475 22.959 38.6721 23.3404 38.6721C23.7219 38.6721 24.0996 38.7475 24.4518 38.8939C24.804 39.0402 25.1239 39.2548 25.393 39.5251ZM51.8554 4.87666C49.201 2.22322 45.6016 0.732605 41.8484 0.732605C38.0953 0.732605 34.4958 2.22322 31.8415 4.87666L30.6082 6.10988C30.0642 6.65393 29.7585 7.39182 29.7585 8.16123C29.7585 8.93063 30.0642 9.66852 30.6082 10.2126C31.1523 10.7566 31.8902 11.0623 32.6596 11.0623C33.429 11.0623 34.1669 10.7566 34.7109 10.2126L35.9466 8.97694C37.5147 7.40879 39.6416 6.52782 41.8593 6.52782C44.077 6.52782 46.2038 7.40879 47.772 8.97694C49.3401 10.5451 50.2211 12.672 50.2211 14.8896C50.2211 17.1073 49.3401 19.2342 47.772 20.8024L39.3711 29.1767C38.5967 29.9552 37.6756 30.5723 36.6611 30.9924C35.6466 31.4124 34.5588 31.627 33.4608 31.6238C31.5772 31.6225 29.7492 30.9849 28.2734 29.8144C26.7976 28.6439 25.7605 27.0092 25.3302 25.1753C25.1561 24.4271 24.6919 23.7787 24.0398 23.3727C23.3876 22.9667 22.6008 22.8365 21.8526 23.0106C21.1044 23.1847 20.4559 23.6489 20.05 24.301C19.644 24.9532 19.5137 25.74 19.6878 26.4882C20.4145 29.5939 22.169 32.363 24.6668 34.3465C27.1646 36.33 30.2592 37.4116 33.4487 37.4158H33.4608C35.3201 37.4209 37.1619 37.0573 38.8798 36.3461C40.5977 35.6348 42.1575 34.59 43.469 33.2721L51.8554 24.8857C53.1694 23.572 54.2117 22.0123 54.9228 20.2957C55.634 18.5791 56 16.7393 56 14.8812C56 13.0231 55.634 11.1833 54.9228 9.46666C54.2117 7.75007 53.1694 6.19037 51.8554 4.87666Z" fill="url(#paint0_linear_4_112)"/>
<defs>
<linearGradient id="paint0_linear_4_112" x1="28" y1="0.732605" x2="28" y2="49" gradientUnits="userSpaceOnUse">
<stop stop-color="#466D77"/>
<stop offset="1" stop-color="#425367"/>
</linearGradient>
</defs>
</svg>
