<svg width="64" height="48" viewBox="0 0 64 48" fill="none" xmlns="http://www.w3.org/2000/svg">
<path fill-rule="evenodd" clip-rule="evenodd" d="M4.456 24.396V23.744C8.476 23.336 10.444 21.284 10.444 17.344V10.156C10.444 5.78 12.004 4.004 15.86 4.004H16.952V0.143997H15.448C9 0.143997 5.96 3.18 5.96 9.552V15.648C5.96 20.024 4.456 21.472 0 21.472V26.668C4.456 26.668 5.96 28.116 5.96 32.492V38.588C5.96 44.96 8.996 47.996 15.448 47.996H16.952V44.14H15.86C12.004 44.14 10.444 42.364 10.444 37.988V30.796C10.444 26.86 8.476 24.808 4.456 24.396ZM59.544 23.744V24.4C55.524 24.812 53.556 26.864 53.556 30.8V37.992C53.556 42.368 51.996 44.144 48.14 44.144H47.048V48H48.552C55.004 48 58.04 44.964 58.04 38.592V32.496C58.04 28.12 59.544 26.672 64 26.672V21.472C59.544 21.472 58.04 20.024 58.04 15.648V9.552C58.04 3.18 55 0.143997 48.552 0.143997H47.048V4H48.14C51.996 4 53.556 5.776 53.556 10.152V17.344C53.556 21.28 55.524 23.332 59.544 23.744ZM30 38.144V28.972L23.516 35.456L20.688 32.628L27.168 26.144H18V22.144H27.172L20.688 15.66L23.516 12.832L30 19.312V10.144H34V19.316L40.484 12.832L43.312 15.66L36.832 22.144H46V26.144H36.828L43.312 32.628L40.484 35.456L34 28.976V38.144H30Z" fill="url(#paint0_linear_4_122)"/>
<defs>
<linearGradient id="paint0_linear_4_122" x1="32" y1="0.143997" x2="32" y2="48" gradientUnits="userSpaceOnUse">
<stop stop-color="#466D77"/>
<stop offset="1" stop-color="#425367"/>
</linearGradient>
</defs>
</svg>
