<svg width="195" height="81" viewBox="0 0 195 81" fill="none" xmlns="http://www.w3.org/2000/svg">
<path d="M17.1907 57.1011C24.7882 53.4896 31.3087 50.3933 37.8339 47.2921C26.5145 45.9534 14.8152 49.0979 3.60643 42.1252C14.9066 40.8058 25.3412 39.5875 35.7758 38.3692C23.5332 33.7994 9.29018 34.9743 0 23.3403C11.8291 25.4639 23.6582 27.5827 35.4873 29.7063C24.6969 22.2039 10.6654 19.3002 4.37581 4.8443C16.7627 10.9695 28.3658 16.7095 39.9689 22.4446C34.9824 15.4815 26.8511 10.6998 26.5049 0C34.5785 6.63563 42.1087 12.8234 49.9852 19.305C50.3747 16.6998 50.692 14.5762 51.0142 12.4526C54.5966 17.7978 59.184 21.4189 63.7185 25.3965C69.1378 30.1589 72.7009 36.9149 71.8835 44.8507C71.7873 45.7994 71.0997 47.0754 70.3062 47.5088C61.6941 52.2327 58.1357 59.9615 57.2173 69.2648C56.8951 72.5393 55.0823 74.138 51.6393 75C52.1298 73.4013 52.4808 72.2408 52.8703 70.9743C50.192 71.8989 47.653 72.7753 45.1189 73.6469C44.9795 73.4061 44.8352 73.1653 44.6957 72.9246C45.7584 71.2151 46.8259 69.5104 48.0954 67.4735C44.816 68.3258 41.8731 69.0915 38.9303 69.8571C38.7475 69.5586 38.5696 69.2648 38.3869 68.9663C40.4882 66.6742 42.5896 64.382 44.7775 61.9936C39.6467 63.2648 34.7324 64.4783 29.818 65.6966C29.616 65.2343 29.4189 64.7721 29.2169 64.3098C32.9243 61.382 36.6318 58.4543 40.344 55.5265C32.9099 56.6437 25.8413 59.5811 17.1955 57.1059L17.1907 57.1011Z" fill="url(#paint0_linear_16_79)"/>
<path d="M92.3239 67.2727H86.7159C86.6762 66.8087 86.5701 66.3878 86.3977 66.01C86.232 65.6321 86 65.3073 85.7017 65.0355C85.4101 64.7571 85.0554 64.545 84.6378 64.3992C84.2202 64.2467 83.7462 64.1705 83.2159 64.1705C82.2879 64.1705 81.5024 64.3959 80.8594 64.8466C80.223 65.2974 79.7391 65.9437 79.4077 66.7855C79.0829 67.6274 78.9205 68.6383 78.9205 69.8182C78.9205 71.0644 79.0862 72.1084 79.4176 72.9503C79.7557 73.7855 80.2429 74.4153 80.8793 74.8395C81.5156 75.2571 82.2813 75.4659 83.1762 75.4659C83.6866 75.4659 84.144 75.403 84.5483 75.277C84.9527 75.1444 85.304 74.9555 85.6023 74.7102C85.9006 74.465 86.1425 74.17 86.3281 73.8253C86.5204 73.474 86.6496 73.0796 86.7159 72.6421L92.3239 72.6818C92.2576 73.5436 92.0156 74.4219 91.598 75.3168C91.1804 76.205 90.5871 77.027 89.8182 77.7827C89.0559 78.5317 88.1113 79.135 86.9844 79.5923C85.8575 80.0497 84.5483 80.2784 83.0568 80.2784C81.1875 80.2784 79.5104 79.8774 78.0256 79.0753C76.5474 78.2732 75.3774 77.0933 74.5156 75.5355C73.6605 73.9778 73.233 72.072 73.233 69.8182C73.233 67.5512 73.6705 65.6421 74.5455 64.0909C75.4205 62.5332 76.6004 61.3566 78.0852 60.5611C79.5701 59.759 81.2273 59.358 83.0568 59.358C84.3428 59.358 85.5261 59.5336 86.6066 59.885C87.687 60.2363 88.635 60.75 89.4503 61.4262C90.2656 62.0957 90.9219 62.9209 91.4191 63.902C91.9162 64.8831 92.2178 66.0066 92.3239 67.2727Z" fill="white"/>
<path d="M114.559 69.8182C114.559 72.0852 114.119 73.9976 113.237 75.5554C112.355 77.1066 111.165 78.2832 109.667 79.0852C108.169 79.8807 106.499 80.2784 104.656 80.2784C102.8 80.2784 101.123 79.8774 99.6247 79.0753C98.1332 78.2666 96.9466 77.0867 96.065 75.5355C95.19 73.9778 94.7525 72.072 94.7525 69.8182C94.7525 67.5512 95.19 65.6421 96.065 64.0909C96.9466 62.5332 98.1332 61.3566 99.6247 60.5611C101.123 59.759 102.8 59.358 104.656 59.358C106.499 59.358 108.169 59.759 109.667 60.5611C111.165 61.3566 112.355 62.5332 113.237 64.0909C114.119 65.6421 114.559 67.5512 114.559 69.8182ZM108.872 69.8182C108.872 68.5985 108.709 67.571 108.385 66.7358C108.066 65.894 107.592 65.2576 106.963 64.8267C106.34 64.3892 105.571 64.1705 104.656 64.1705C103.741 64.1705 102.969 64.3892 102.339 64.8267C101.716 65.2576 101.242 65.894 100.917 66.7358C100.599 67.571 100.44 68.5985 100.44 69.8182C100.44 71.0379 100.599 72.0687 100.917 72.9105C101.242 73.7458 101.716 74.3821 102.339 74.8196C102.969 75.2505 103.741 75.4659 104.656 75.4659C105.571 75.4659 106.34 75.2505 106.963 74.8196C107.592 74.3821 108.066 73.7458 108.385 72.9105C108.709 72.0687 108.872 71.0379 108.872 69.8182Z" fill="white"/>
<path d="M117.117 80V59.6364H125.907C127.418 59.6364 128.741 59.9115 129.874 60.4617C131.008 61.0119 131.889 61.804 132.519 62.8381C133.149 63.8722 133.464 65.1118 133.464 66.5568C133.464 68.0152 133.139 69.2448 132.489 70.2458C131.846 71.2467 130.942 72.0024 129.775 72.5128C128.615 73.0232 127.259 73.2784 125.708 73.2784H120.458V68.983H124.594C125.244 68.983 125.798 68.9034 126.255 68.7443C126.719 68.5786 127.074 68.3168 127.319 67.9588C127.571 67.6009 127.697 67.1335 127.697 66.5568C127.697 65.9735 127.571 65.4995 127.319 65.135C127.074 64.7637 126.719 64.492 126.255 64.3196C125.798 64.1406 125.244 64.0512 124.594 64.0512H122.646V80H117.117ZM129.049 70.6534L134.14 80H128.134L123.163 70.6534H129.049Z" fill="white"/>
<path d="M140.76 59.6364L144.936 73.9943H145.095L149.271 59.6364H155.515L148.794 80H141.237L134.515 59.6364H140.76Z" fill="white"/>
<path d="M169.528 59.6364H175.056V72.6818C175.056 74.233 174.685 75.5753 173.942 76.7088C173.207 77.8357 172.179 78.7074 170.86 79.3239C169.541 79.9337 168.01 80.2387 166.266 80.2387C164.51 80.2387 162.972 79.9337 161.653 79.3239C160.334 78.7074 159.306 77.8357 158.57 76.7088C157.841 75.5753 157.477 74.233 157.477 72.6818V59.6364H163.005V72.2046C163.005 72.8343 163.144 73.3977 163.423 73.8949C163.701 74.3854 164.085 74.7699 164.576 75.0483C165.073 75.3267 165.637 75.4659 166.266 75.4659C166.903 75.4659 167.466 75.3267 167.957 75.0483C168.447 74.7699 168.832 74.3854 169.11 73.8949C169.389 73.3977 169.528 72.8343 169.528 72.2046V59.6364Z" fill="white"/>
<path d="M188.661 66C188.608 65.3371 188.359 64.8201 187.915 64.4489C187.478 64.0777 186.811 63.8921 185.917 63.8921C185.346 63.8921 184.879 63.9617 184.515 64.1009C184.157 64.2334 183.891 64.4157 183.719 64.6477C183.547 64.8798 183.457 65.1449 183.451 65.4432C183.437 65.6885 183.48 65.9105 183.58 66.1094C183.686 66.3016 183.852 66.4773 184.077 66.6364C184.302 66.7888 184.591 66.928 184.942 67.054C185.293 67.1799 185.711 67.2926 186.195 67.3921L187.865 67.75C188.992 67.9887 189.957 68.3035 190.759 68.6946C191.561 69.0857 192.217 69.5464 192.728 70.0767C193.238 70.6004 193.613 71.1904 193.851 71.8466C194.096 72.5029 194.222 73.2188 194.229 73.9943C194.222 75.3334 193.888 76.4669 193.225 77.3949C192.562 78.3229 191.614 79.0289 190.381 79.5128C189.155 79.9967 187.68 80.2387 185.956 80.2387C184.186 80.2387 182.642 79.9768 181.323 79.4531C180.01 78.9295 178.989 78.1241 178.26 77.0369C177.538 75.9432 177.173 74.5445 177.167 72.8409H182.417C182.45 73.464 182.605 73.9877 182.884 74.4119C183.162 74.8362 183.553 75.1577 184.057 75.3764C184.568 75.5952 185.174 75.7046 185.877 75.7046C186.467 75.7046 186.961 75.6316 187.358 75.4858C187.756 75.34 188.058 75.1378 188.263 74.8793C188.469 74.6208 188.575 74.3258 188.581 73.9943C188.575 73.6828 188.472 73.411 188.273 73.179C188.081 72.9404 187.763 72.7282 187.319 72.5426C186.874 72.3504 186.275 72.1714 185.519 72.0057L183.49 71.5682C181.687 71.1771 180.266 70.5242 179.225 69.6094C178.191 68.688 177.677 67.4318 177.684 65.8409C177.677 64.5483 178.022 63.4181 178.718 62.4503C179.42 61.4759 180.391 60.7169 181.631 60.1733C182.877 59.6298 184.306 59.358 185.917 59.358C187.561 59.358 188.982 59.6331 190.182 60.1833C191.382 60.7334 192.307 61.509 192.956 62.51C193.613 63.5043 193.944 64.6676 193.951 66H188.661Z" fill="white"/>
<defs>
<linearGradient id="paint0_linear_16_79" x1="13.3451" y1="0" x2="13.3451" y2="70.0687" gradientUnits="userSpaceOnUse">
<stop stop-color="#466D77"/>
<stop offset="1" stop-color="#425367"/>
</linearGradient>
</defs>
</svg>
